:SAMPLES-PER-SECOND 30
:FULLY-SPECIFIED
:DEGREES
488
root  -5.87624 30.8913 46.5307 -80.7479 -8.21389 83.7516
Spine  -8.96131 -13.5754 -4.88851
Spine1  -5.14782 26.4946 7.68031
Neck  3.97569e-016 0 -2.38542e-015
Head  19.7197 -3.75967 8.09979
R_Clavicle  0.473346 -17.5187 3.31632
R_UpperArm  24.2571 -0.81063 28.9712
R_Forearm  15.6067 -13.6884 11.6587
R_Hand  -0.277553 7.12391 -12.8686
L_Clavicle  -0.563539 18.4036 -1.82179
L_UpperArm  8.63365 -1.32136 5.4148
L_Forearm  4.04618 18.9057 23.3093
L_Hand  0.0427021 1.73248 0.750236
L_Thigh  -0.522678 -6.0221 -29.6569
L_Calf  8.23343 -1.20365 8.45314
L_Foot  7.05734 8.18334 17.631
L_Toe0  5.75472 -0.614381 -0.105138
R_Thigh  2.44666 3.70863 7.01218
R_Calf  -1.03908 12.9209 40.9823
R_Foot  1.22829 -3.89046 -16.0187
R_Toe0  -1.78853 -0.272788 -17.3235
489
root  -6.06406 30.5367 45.1638 -78.6203 -9.20877 86.2332
Spine  -9.47549 -8.02967 -2.16552
Spine1  -6.79583 26.9859 5.09164
Neck  3.97569e-016 0 -2.38542e-015
Head  19.9002 -5.82319 8.26875
R_Clavicle  0.442928 -18.08 2.67654
R_UpperArm  32.4526 -4.59523 33.0601
R_Forearm  24.9964 -17.4478 15.1253
R_Hand  -0.847233 7.29396 -17.5388
L_Clavicle  -0.54663 17.8609 -2.31546
L_UpperArm  1.87933 2.93641 4.74203
L_Forearm  2.98647 16.2591 19.6871
L_Hand  0.0133437 2.52516 0.294301
L_Thigh  -1.04447 -3.15239 -24.0437
L_Calf  6.79716 0.880695 -6.80686
L_Foot  3.9802 8.92502 6.3186
L_Toe0  7.05776 -1.71841 7.40118
R_Thigh  1.5298 7.1149 7.21405
R_Calf  -1.95633 10.3727 34.8643
R_Foot  1.32404 -5.65762 -18.3149
R_Toe0  -1.7663 -0.273715 -17.3431
490
root  -6.26542 29.891 43.8873 -77.8114 -10.1267 87.9479
Spine  -8.82921 -3.74988 -0.118514
Spine1  -7.01379 27.2837 3.51233
Neck  3.97569e-016 0 -2.38542e-015
Head  19.3234 -7.62447 7.92966
R_Clavicle  0.422877 -18.2353 2.159
R_UpperArm  39.9465 -8.14642 37.3003
R_Forearm  36.8769 -19.1019 16.7125
R_Hand  -1.34773 6.69616 -21.6447
L_Clavicle  -0.551339 17.8477 -2.62569
L_UpperArm  -0.251058 4.60672 3.22504
L_Forearm  -1.238 11.3469 13.3958
L_Hand  -0.0575796 3.10927 -0.622473
L_Thigh  -1.39082 -1.71219 -17.3701
L_Calf  2.6034 2.82469 -21.4457
L_Foot  0.741917 9.03156 -5.29085
L_Toe0  4.4059 -0.981681 3.6142
R_Thigh  1.9625 9.16934 9.14209
R_Calf  -2.32907 8.11704 26.3805
R_Foot  1.297 -6.31628 -18.6434
R_Toe0  -2.00849 -0.265317 -17.1853
491
root  -6.51736 29.2059 42.6616 -79.192 -11.4203 88.0603
Spine  -7.10437 -1.74841 0.716475
Spine1  -5.02148 26.5828 5.18091
Neck  3.97569e-016 0 -2.38542e-015
Head  18.2161 -8.34505 6.02301
R_Clavicle  0.414813 -18.9117 1.89545
R_UpperArm  45.8135 -10.1292 41.498
R_Forearm  47.5472 -17.6098 15.2784
R_Hand  -1.59588 6.1285 -23.8807
L_Clavicle  -0.550601 17.9504 -2.27869
L_UpperArm  1.29141 2.82577 -0.970263
L_Forearm  -3.07275 5.15872 5.97294
L_Hand  -0.115741 3.08098 -1.39449
L_Thigh  -3.59968 -2.01439 -12.603
L_Calf  -3.46589 4.15057 -32.3143
L_Foot  0.074519 8.31383 -7.25469
L_Toe0  0.150513 0.126553 -6.9992
R_Thigh  3.83726 9.81654 10.4317
R_Calf  -3.30509 5.54752 17.706
R_Foot  0.431063 -8.49851 -15.3779
R_Toe0  -2.56761 -0.225751 -16.1666
492
root  -6.78783 28.8896 41.4161 -81.6683 -13.0776 87.1853
Spine  -5.48453 -1.37106 0.29973
Spine1  -2.30204 25.07 9.64113
Neck  3.97569e-016 0 -2.38542e-015
Head  17.7781 -8.05672 3.45439
R_Clavicle  0.415441 -19.6672 1.8497
R_UpperArm  49.1636 -10.4985 44.4345
R_Forearm  52.9513 -13.4033 11.4016
R_Hand  -1.69958 6.12882 -24.7823
L_Clavicle  -0.510473 17.419 -1.27893
L_UpperArm  2.7077 -0.59223 -6.93616
L_Forearm  -1.62801 -1.52127 -1.77475
L_Hand  -0.118435 2.83834 -1.4831
L_Thigh  -6.8009 -3.19185 -10.0343
L_Calf  -8.16206 4.78861 -38.0134
L_Foot  2.01394 9.07133 -0.763385
L_Toe0  0.505156 0.034446 -6.1361
R_Thigh  3.82334 10.0756 9.27553
R_Calf  -4.60841 3.55092 11.314
R_Foot  -0.903951 -9.94715 -9.58446
R_Toe0  -1.51439 -0.202533 -14.9148
493
root  -7.00617 28.9992 40.2466 -83.3358 -14.3015 86.7147
Spine  -5.07888 -1.33662 -0.813611
Spine1  -1.03249 23.9507 13.5504
Neck  3.97569e-016 0 -2.38542e-015
Head  18.7366 -7.58586 2.6023
R_Clavicle  0.413671 -19.3747 1.81057
R_UpperArm  49.4235 -10.6857 45.8246
R_Forearm  51.721 -7.66222 6.39441
R_Hand  -1.70962 6.07133 -24.8683
L_Clavicle  -0.448043 15.8564 -0.274072
L_UpperArm  1.96944 -3.26687 -11.907
L_Forearm  -0.612215 -6.94805 -8.11044
L_Hand  -0.109542 2.99846 -1.33156
L_Thigh  -7.67419 -3.89841 -8.16263
L_Calf  -7.43337 4.8245 -38.3559
L_Foot  3.88067 8.63066 6.31647
L_Toe0  0.505156 0.034446 -6.1361
R_Thigh  2.63185 10.4251 6.72444
R_Calf  -5.70882 2.7251 8.72041
R_Foot  -1.63979 -9.96274 -6.00568
R_Toe0  -1.19939 -0.211153 -14.9902
494
root  -7.19062 29.4202 39.2243 -83.9718 -14.6002 86.4235
Spine  -5.81573 -1.6501 -1.78874
Spine1  -1.76523 23.2741 14.1392
Neck  3.97569e-016 0 -2.38542e-015
Head  20.3465 -7.26952 4.73857
R_Clavicle  0.401628 -18.1141 1.59745
R_UpperArm  46.8001 -11.4585 46.6352
R_Forearm  46.8836 -1.53692 1.24917
R_Hand  -1.62811 5.90632 -24.2109
L_Clavicle  -0.396604 13.9353 0.2168
L_UpperArm  0.159297 -4.6151 -14.4322
L_Forearm  -2.05159 -9.57492 -11.2541
L_Hand  -0.148309 3.31445 -1.77025
L_Thigh  -5.91167 -4.28739 -7.06195
L_Calf  -4.15399 4.37775 -34.3011
L_Foot  3.9711 6.38034 9.10169
L_Toe0  0.505156 0.034446 -6.1361
R_Thigh  2.32524 10.1277 4.28907
R_Calf  -5.27515 2.73816 8.75046
R_Foot  -2.30443 -11.2844 -4.2901
R_Toe0  0.223425 -0.289008 -15.5622
